<?xml version="1.0" encoding="UTF-8"?>
<svg version="1.1" viewBox="0 0 2048 2048" width="512" height="512" xmlns="http://www.w3.org/2000/svg">
<path transform="translate(807,85)" d="m0 0h433l21 2 19 5 16 7 15 9 11 9 7 6 9 11 6 8 8 14 5 11 5 16 3 21v137h389l26 2 25 5 24 8 25 12 19 12 14 11 13 12 9 9 11 14 10 14 13 24 8 20 6 21 4 22 1 10 1 1009-1 51-4 27-6 22-7 18-8 17-11 18-13 17-11 12-9 9-11 9-15 11-19 11-20 9-24 8-11 3-1 88-2 21-5 15-8 14-9 11-10 9-16 9-15 5-10 2-39 1h-45l-25-1-16-4-16-8-13-10-11-12-8-14-5-12-2-9-1-9v-92h-1024v82l-1 17-4 16-8 16-10 13-7 7-14 9-11 5-14 4-6 1-39 1h-45l-25-1-16-4-16-8-13-10-11-12-8-14-5-12-3-17v-97l-16-4-18-6-18-8-15-8-18-12-11-9-10-9-12-12-13-17-7-10-10-17-9-21-7-21-5-25-2-25v-1037l2-23 5-25 8-24 12-25 10-16 12-16 12-13 12-12 17-13 14-9 14-8 21-9 19-6 25-5 9-1 20-1h110l274-1 1-124 2-25 5-19 8-19 9-14 10-13 7-7 11-9 14-9 14-7 20-6 11-2zm8 85-18 2-11 6-9 8-6 10-3 12v133h511l1-1v-130l-2-10-6-12-7-8-10-6-9-3-12-1z" fill="#773D00"/>
<path transform="translate(807,85)" d="m0 0h433l21 2 19 5 16 7 15 9 11 9 7 6 9 11 6 8 8 14 5 11 5 16 3 21 1 137v81l-1 97v310l-4-1-18-14-38-28-21-16-19-14-21-16-19-14-13-10-11-9 5 6 11 9 3 2v2l5 2 16 12 13 10 19 14 13 10 34 25 5 3v2l8 4v2h3v2l5 2 11 8v2l5 2v2l5 2 3 2v277h-75l74 1 1 1 1 22v658h-681l-3-1-1-57v-119l1-159v-172l-1-132v-213l1-201v-108l-1-134v-155l1-124 2-25 5-19 8-19 9-14 10-13 7-7 11-9 14-9 14-7 20-6 11-2zm8 85-18 2-11 6-9 8-6 10-3 12v133h511l1-1v-130l-2-10-6-12-7-8-10-6-9-3-12-1z" fill="#B25B00"/>
<path transform="translate(1619,341)" d="m0 0h135l26 2 25 5 24 8 25 12 19 12 14 11 13 12 9 9 11 14 10 14 13 24 8 20 6 21 4 22 1 10 1 1009-1 51-4 27-6 22-7 18-8 17-11 18-13 17-11 12-9 9-11 9-15 11-19 11-20 9-24 8-11 3-2 2-33 2h-137l-2-6-1-112v-51l2-176v-249l4-4-4-1-1-50v-111l1-39 1-193v-140l5 2h3l-9-6-1-76z" fill="#B25B00"/>
<path transform="translate(297,341)" d="m0 0h130v377l-1 5 1 1v580l-1 67-7 1v2l-33 7-100 20-38 8-15 5-6 5h-2l-2 4-6 9-3 7-1 5v11l5 24 18 71 18 72 6 19 6 9 5 5 10 6 9 3h14l25-6 81-20 11-3h5l1 3v153l-2 1h-112l-32-1-25-2-19-6-20-7-23-11-19-12-14-11-12-11-11-11-13-17-7-10-10-17-9-21-7-21-5-25-2-25v-1037l2-23 5-25 8-24 12-25 10-16 12-16 12-13 12-12 17-13 14-9 14-8 21-9 19-6 25-5 9-1z" fill="#B25C00"/>
<path transform="translate(1366,341)" d="m0 0h253l1 5v234l1 76 11 7-4 1-7-4 1 5v135l-1 193-1 39v161l6 1-4 2-1 2v252l-2 173v53l1 110 1 5h137l34-2v87l-2 21-5 15-8 14-9 11-10 9-16 9-15 5-10 2-39 1h-45l-25-1-16-4-16-8-13-10-11-12-8-14-5-12-2-9-1-9v-92h-59l-111-1-1-658-1-22-137-2v-1h77l61 1-1-277-7-4v-2l-5-2v-2l-4-2-12-8v-2h-3v-2l-4-1-4-3v-2l-5-2-19-14-48-36-9-7-19-14-5-3v-2l-4-2-11-9v-2l-4-2v-2l4 2 9 8 19 14 21 16 19 14 21 16 38 28 12 9 13 10 5 4 3 1-1-314z" fill="#783D00"/>
<path transform="translate(921,1152)" d="m0 0h33l27 4 23 6 21 8 16 8 14 8 16 12 10 9 8 7 8 8 9 11 10 13 9 15 11 23 9 27 5 25 2 23v17l-2 19-4 20-5 17-8 21-13 25-12 17-9 11-4 5h-2l-2 4-13 12-14 11-14 9-16 9-18 8-21 7-23 5-26 3h-14l-22-2-21-4-20-6-20-8-16-8-17-11-12-9-15-13-7-7-7-8-13-17-12-20-9-19-9-27-4-18-3-26v-19l2-21 5-24 5-17 9-22 11-20 8-12 11-14 12-13 9-9 10-8 14-10 15-9 16-8 21-8 23-6z" fill="#BEDFF3"/>
<path transform="translate(1019,896)" d="m0 0h331l15 1v212h-347l-13-4-10-7-7-8-5-11-1-4-1-17v-104l1-22 2-9 6-10 7-8 16-8z" fill="#7BC3E8"/>
<path transform="translate(807,85)" d="m0 0h433l21 2 19 5 16 7 15 9 11 9 7 6 9 11 6 8 8 14 5 11 5 16 3 21v135l-3 1h-82l-1-130-2-10-6-12-6-7-10-6-9-3-12-1h-419l-18 2-11 6-8 7-6 10-3 12-1 131-1 1h-39l-46-1v-123l2-25 5-19 8-19 9-14 10-13 7-7 11-9 14-9 14-7 20-6 11-2z" fill="#4B5157"/>
<path transform="translate(1021,512)" d="m0 0h12l10 3 11 7 7 8 7 14 40 120 3 12v13l-4 12-7 10-8 7-14 6-38 13-40 13-38 13-43 14-87 29-13 4-9 1-10-2-14-7-9-10-6-13-16-47-25-75-3-16 1-10 5-13 7-9 10-7 15-6 219-73 28-9z" fill="#BEDFF3"/>
<path transform="translate(1624,1193)" d="m0 0h104l33 2 10 4 7 5v2h2l6 9 4 9 2 7 1 9 1 56 54 27 10 6 12 11 6 13 2 13v47l-3 12-6 10-8 8-13 7-10 1h-205l-12-1-1-3v-249z" fill="#AA1005"/>
<path transform="translate(261,725)" d="m0 0h165l1 42v130l-1 84h-169l-15-2-13-7-7-7-6-10-2-7-1-18v-141l1-34 6-10 9-10 12-7 8-2z" fill="#F5AA01"/>
<path transform="translate(424,1372)" d="m0 0h2v263l-117 29-5 1h-14l-9-3-10-6-5-5-4-5-5-10-10-38-33-132-2-11v-11l3-9 5-10 5-6 8-6 15-5 43-9 106-21z" fill="#7BC3E8"/>
<path transform="translate(1274,468)" d="m0 0h11l12 5 15 9 31 21 17 12 4 2 1 2v310l-4-1-18-14-38-28-21-16-19-14-21-16-19-14-13-10-10-9-6-10-3-9v-13l6-27 12-47 25-100 4-10 7-9 7-6 12-6z" fill="#F5AA01"/>
<path transform="translate(1621,660)" d="m0 0 5 2 29 17 20 12 29 17 13 8 17 10 22 13 25 15 17 10 21 14v2l4 2 4 5 5 10 2 7v15l-5 12-8 11-15 16-103 103-11 9-14 9-7 2h-9l-13-4-16-8-12-5z" fill="#F5AA01"/>
<path transform="translate(256,1789)" d="m0 0 19 2 29 1h208v82l-1 17-4 16-8 16-10 13-7 7-14 9-11 5-14 4-6 1-39 1h-45l-25-1-16-4-16-8-13-10-11-12-8-14-5-12-3-17z" fill="#4B5157"/>
<path transform="translate(1791,1789)" d="m0 0h1v87l-2 21-5 15-8 14-9 11-10 9-16 9-15 5-10 2-39 1h-45l-25-1-16-4-16-8-13-10-11-12-8-14-5-12-2-9-1-9v-91l5-1h220l19-1z" fill="#4B5157"/>
<path transform="translate(1201,707)" d="m0 0 4 2 9 8 19 14 21 16 19 14 21 16 38 28 12 9 13 10 5 4v2l-5-2v-2l-5-2v-2l-4-2-12-8v-2h-3v-2l-4-1-4-3v-2l-5-2-19-14-48-36-9-7-19-14-5-3v-2l-4-2-11-9v-2l-4-2z" fill="#834300"/>
<path transform="translate(1814,849)" d="m0 0 2 1-9 10-101 101-3 1 2-4z" fill="#8B4700"/>
<path transform="translate(1657,679)" d="m0 0 5 2 35 20v2l5 1 14 8 5 3 17 10 27 16v2l-9-3-24-14-22-13-20-12-17-10-15-9z" fill="#8B4700"/>
<path transform="translate(1201,707)" d="m0 0 4 2 9 8 19 14 21 16 19 14-4 1-16-12-9-7-19-14-5-3v-2l-4-2-11-9v-2l-4-2z" fill="#8A4500"/>
<path transform="translate(1657,679)" d="m0 0 5 2 35 20v2l5 1 4 3v2l5 2 3 3-6-2-16-10-24-14-10-6z" fill="#904900"/>
<path transform="translate(1325,801)" d="m0 0 4 2 14 10 14 11 5 4v2l-5-2v-2l-5-2v-2l-4-2-12-8v-2h-3v-2l-4-1-4-3z" fill="#844300"/>
<path transform="translate(1250,747)" d="m0 0 6 1 17 13-4 1-16-12z" fill="#8D3E00"/>
<path transform="translate(1697,703)" d="m0 0 5 1 4 3v2l5 2 3 3-6-2-11-7z" fill="#9B4F00"/>
<path transform="translate(1624,966)" d="m0 0 7 1 7 4v2l-6-2-8-4z" fill="#8B4700"/>
<path transform="translate(1350,820)" d="m0 0 5 2 7 6v2l-5-2v-2l-5-2v-2h-2z" fill="#8C4000"/>
<path transform="translate(1706,707)" d="m0 0 4 2 8 5 1 3-5-2-3-3-5-3z" fill="#824200"/>
</svg>
