<svg xmlns="http://www.w3.org/2000/svg" width="71" height="34" viewBox="0 0 71 34" fill="none">
  <path
    d="M17.5048 32.8751C17.5048 32.8751 31.3983 28.2735 36.9558 20.6819C39.2121 17.5919 45.7365 13.8128 51.4828 10.4005C59.8856 5.39873 67.8772 1.1639 68.8442 1.00829C70.478 0.741527 66.8102 6.97707 61.5195 10.645C56.2289 14.313 46.5923 20.2818 39.6678 25.5725C39.6678 25.5725 32.4765 26.1172 22.2953 17.8365C22.2953 17.8365 18.7719 15.9358 11.5695 13.7684C7.91275 12.668 5.25631 9.30012 3 5.82111C3 5.82111 4.43381 6.61027 20.6837 10.9674C22.5287 11.4675 25.6631 12.0011 27.8861 12.5902C28.7419 12.8236 29.6089 13.0237 30.3424 13.5238C31.2316 14.124 42.4465 20.782 48.6819 20.4818C57.0069 20.0706 55.7176 23.1161 55.7176 23.1161C55.7176 23.1161 54.3616 21.849 52.4943 24.9834C50.627 28.1179 46.3033 30.1519 37.9116 29.9852C29.5199 29.8074 17.5048 32.8751 17.5048 32.8751Z"
    fill="#E1BC6D"
    stroke="#E1BC6D"
    stroke-width="2"
    stroke-miterlimit="10"
  />
</svg>